<svg width="128" height="40" viewBox="0 0 128 40" fill="none" xmlns="http://www.w3.org/2000/svg">
<path fill-rule="evenodd" clip-rule="evenodd" d="M47.0944 18.1327C47.7244 19.0776 47.9943 20.7874 47.2294 21.8223L45.5196 23.622L30.2215 38.8751C29.0967 39.5051 27.7919 39.865 26.667 39.3701C23.7874 38.5602 25.7671 33.1159 24.4173 33.0709C20.5478 34.5107 17.9381 42.3847 13.4836 38.6952C11.6389 36.6254 13.0787 33.1609 12.0888 33.0709C11.0089 32.5309 6.10456 42.3847 0.930208 38.8751C0.120309 38.0652 -0.194652 36.7604 0.120309 35.6355L0.570253 34.5107L12.3588 23.3971C13.7986 22.5872 15.7334 22.4522 17.3532 23.0821C20.1428 24.072 18.1631 28.3915 19.6029 28.0765C19.6029 28.0765 25.0472 23.3521 26.1721 22.8121C27.1619 22.4972 28.1068 22.4522 29.0967 22.7672C30.8515 23.892 31.3464 25.8268 31.2114 27.7615C31.1664 28.3465 31.0314 29.0214 32.3363 27.7615C34.316 25.7368 34.991 25.0169 37.1507 22.7672L36.8807 22.2722L23.1574 22.2272C22.0326 22.2722 21.0427 20.8324 20.5928 19.8425C19.9628 18.2227 19.9628 15.973 21.2227 14.6682L32.1113 4.27447H32.1563C32.1563 5.12936 32.8762 5.80427 33.7311 5.80427C34.586 5.80427 35.2609 5.08436 35.2609 4.22947C35.2609 3.41957 34.631 2.74466 33.8211 2.69966L33.8661 2.65467C33.8661 2.69966 36.7007 0 36.7007 0L39.5804 3.14961C39.8953 4.40945 40.1653 6.11924 39.2204 6.92913C36.4308 9.67379 33.5511 12.4634 30.8515 15.2981L31.1664 15.703H43.8548C45.1597 15.838 46.4645 17.0079 47.0944 18.1327ZM63.2024 22.4072V10.7986H59.8278L57.4431 18.8076H57.3982L54.8785 10.7986H51.5039V22.4072H53.7536V14.2632H53.7986L56.4533 22.4072H58.298L60.9527 14.1732H60.9977V22.4072H63.2024ZM70.7615 10.7986L74.811 22.4072H72.3363L71.5264 19.8425H67.4769L66.622 22.4072H64.1923L68.3318 10.7986H70.7615ZM70.8515 17.9078L69.5016 13.6783H69.4566L68.0168 17.9078H70.8515ZM77.4206 22.4072H79.8054V17.9528L83.8548 10.7986H81.2002L78.6805 15.3881L76.1158 10.7986H73.4162L77.4206 17.8628V22.4072ZM89.6141 22.6772C86.2845 22.6772 84.2598 20.0225 84.2598 16.6479C84.2598 13.2283 86.2845 10.5287 89.6141 10.5287C92.9887 10.5287 94.9685 13.1834 94.9685 16.6479C94.9685 19.9775 92.9887 22.6772 89.6141 22.6772ZM89.6141 20.5174C91.7739 20.5174 92.5838 18.5827 92.5838 16.6479C92.5838 14.6232 91.7739 12.6884 89.6141 12.6884C87.4994 12.6884 86.6895 14.6682 86.6895 16.6479C86.6895 18.5377 87.4994 20.5174 89.6141 20.5174ZM104.282 20.2475H99.018V10.7986H96.6332V22.4072H104.327V20.2475H104.282ZM106.757 22.4072H109.142V17.9528L113.191 10.7986H110.537L108.017 15.3881L105.452 10.7986H102.752L106.757 17.8628V22.4072ZM57.4881 32.8909C54.7435 32.126 54.2485 32.036 54.2485 31.1361C54.2485 30.1462 55.1484 29.8313 55.9133 29.8313C57.0832 29.8313 58.0281 30.1912 58.0731 31.5861H60.3678C60.3678 28.8864 58.298 27.8515 56.0033 27.8515C54.0236 27.8515 51.9538 28.9764 51.9538 31.3611C51.9538 33.5658 53.5736 34.1957 55.1934 34.6907C56.7682 35.1406 58.388 35.3656 58.388 36.5804C58.388 37.7503 57.1282 38.0202 56.2733 38.0202C55.0134 38.0202 53.8886 37.3903 53.8886 35.8605H51.5939C51.5489 38.6952 53.7986 40 56.2283 40C59.1979 40 60.7727 38.4252 60.7727 36.2655C60.6827 33.6558 58.253 33.1159 57.4881 32.8909ZM70.7615 31.811C70.7615 33.7008 69.7266 35.5456 66.982 35.5456H64.5073V39.685H62.1226V28.1215H67.0269C69.7266 28.1215 70.7615 29.9663 70.7615 31.811ZM68.4668 31.811C68.4668 30.3712 67.4769 30.1012 66.352 30.1012H64.5073V33.6108H66.352C67.4769 33.6108 68.4668 33.3408 68.4668 31.811ZM72.2463 39.73H74.631V28.1215H72.2463V39.73ZM83.7199 35.9055L79.1304 28.1215H76.7457V39.73H78.9955V31.946H79.0405L83.5849 39.73H85.9696V28.1215H83.7199V35.9055ZM97.6681 33.8808C97.6681 37.2104 96.0483 39.73 92.7187 39.73H88.0393V28.1215H92.7187C95.5534 28.1215 97.6681 30.0112 97.6681 33.8808ZM95.2834 34.1057C95.2834 31.766 94.5185 30.2362 92.1338 30.2362H90.424V37.5703H92.5388C93.9336 37.5703 95.2834 36.6704 95.2834 34.1057ZM101.718 28.1215H99.3329V39.73H107.027V37.5703H101.718V28.1215ZM110.716 34.7357H115.981V32.7109H110.716V30.2362H116.431V28.1215H108.332V39.73H116.566V37.5703H110.716V34.7357ZM127.589 39.73H125.205C124.935 39.0101 124.98 37.8853 124.845 36.9404C124.665 35.7255 124.26 35.2306 123.045 35.2306H120.66V39.775H118.276V28.1215H124.125C126.06 28.1215 127.274 29.5613 127.274 31.3161C127.274 32.6659 126.734 33.7008 125.565 34.2407V34.2857C126.734 34.6007 127.049 35.8155 127.139 36.9854C127.139 37.7053 127.139 39.1001 127.589 39.73ZM124.89 31.721C124.89 30.5962 124.305 30.1012 123.225 30.1012H120.615V33.3858H123.225C124.305 33.3858 124.89 32.8909 124.89 31.721Z" fill="white"/>
</svg>
